<svg >
  <symbol xmlns="http://www.w3.org/2000/svg" viewBox="0 0 28 28" id="bell">
    <title>bell</title>
    <path d="M14.25 26.5a.246.246 0 0 0-.25-.25A2.261 2.261 0 0 1 11.75 24c0-.141-.109-.25-.25-.25s-.25.109-.25.25A2.754 2.754 0 0 0 14 26.75c.141 0 .25-.109.25-.25zM27 22c0 1.094-.906 2-2 2h-7c0 2.203-1.797 4-4 4s-4-1.797-4-4H3c-1.094 0-2-.906-2-2 2.312-1.953 5-5.453 5-13 0-3 2.484-6.281 6.625-6.891A1.574 1.574 0 0 1 12.5 1.5a1.5 1.5 0 0 1 3 0c0 .219-.047.422-.125.609C19.516 2.718 22 6 22 9c0 7.547 2.688 11.047 5 13z"></path>
  </symbol>
  <symbol xmlns="http://www.w3.org/2000/svg" viewBox="0 0 32 32" id="star">
    <title>star</title>
    <path d="M22.137 19.625L32 12H20L16 0l-4 12H0l9.875 7.594L6 32l10.016-7.68L26.008 32z"></path>
  </symbol>
</svg>
